<svg width="24" height="24" viewBox="0 0 24 24" fill="none" xmlns="http://www.w3.org/2000/svg">
<path d="M7.00155 10.1256C5.27554 10.5691 4 12.1356 4 14C4 16.2091 5.79086 18 8 18C8.74841 18 9.4488 17.7945 10.0478 17.4368C10.2471 18.3313 11.0454 19 12 19C12.9546 19 13.7529 18.3313 13.9522 17.4368C14.5512 17.7945 15.2516 18 16 18C18.2091 18 20 16.2091 20 14C20 12.1356 18.7245 10.5691 16.9984 10.1256C16.9995 10.0839 17 10.042 17 10C17 7.23858 14.7614 5 12 5C9.23858 5 7 7.23858 7 10C7 10.042 7.00052 10.0839 7.00155 10.1256Z" fill="#4BC2B0" stroke="#54514E" stroke-width="2"/>
</svg>
